<svg
                        xmlns="http://www.w3.org/2000/svg"
                        viewBox="0 0 24 24"
                        fill="white"
                    >
                        <title>account-group</title>
                        <path d="M12,4.4A3.4,3.4 0 0,1 14.4,9A3.4,3.4 0 0,1 12,12.4A3.4,3.4 0 0,1 8.4,9A3.4,3.4 0 0,1 12,4.4M4,8C4.46,8 6.08,8.14 6.43,8.42C6.38,9.84 6.8,11.27 7.66,12.38C7.16,13.34 6.16,14 4,14A3,3 0 0,1 2,11A3,3 0 0,1 4,8M19,8A3,3 0 0,1 22,11A3,3 0 0,1 19,14C17.84,14 16.84,13.34 16.34,12.38C17.2,11.27 17.62,9.84 17.47,8.42C17.92,8.14 18.44,8 19,8M4.4,18.24C4.4,16.18 8.41,14.4 12,14.4C14.49,14.4 18.4,16.18 18.4,18.24V20H4.4V18.24M0,20V18.4C0,17.11 1.89,14.94 4.44,14.6C3.86,16.28 3.4,17.22 3.4,18.24V20H0M24,20H20.4V18.24C20.4,17.22 20.14,16.28 19.4,14.6C22.11,14.94 24,17.11 24,18.4V20Z" />
                    </svg>