<?xml version="1.0" encoding="iso-8859-1"?>
<!-- Generator: Adobe Illustrator 19.0.0, SVG Export Plug-In . SVG Version: 6.00 Build 0)  -->
<!-- License: CC0. Made by SVG Repo: https://www.svgrepo.com/svg/157986/lion -->
<svg version="1.1" id="Layer_1" xmlns="http://www.w3.org/2000/svg" xmlns:xlink="http://www.w3.org/1999/xlink" x="0px" y="0px"
	 viewBox="0 0 512 512" style="enable-background:new 0 0 512 512;" xml:space="preserve">
<circle style="fill:#366695;" cx="256" cy="256" r="256"/>
<path style="fill:#273B7A;" d="M409.172,158.417L160.916,416.125l96.201,95.861c139.143-0.596,252.069-112.192,254.817-250.818
	L409.172,158.417z"/>
<g>
	<path style="fill:#FDE085;" d="M436.148,249.734c0,15.453-19.135,28.932-23.223,44.339c-3.986,15.022,6.185,35.987-1.155,49.988
		c-7.292,13.908-30.332,17.515-40.422,29.468c-10.221,12.112-10.09,35.509-22.65,44.641c-12.829,9.326-34.673,1.741-49.381,6.925
		C284.624,430.273,272,449.87,256,449.87s-28.624-19.599-43.318-24.778c-14.708-5.184-36.552,2.401-49.381-6.925
		c-12.56-9.132-12.429-32.528-22.65-44.641c-10.088-11.955-33.128-15.56-40.422-29.468c-7.34-14.002,2.831-34.966-1.155-49.988
		c-4.086-15.403-23.221-28.882-23.221-44.337c0-15.1,19.003-27.396,22.911-41.3c4.025-14.322-5.677-34.685,1.929-47.188
		c7.654-12.583,30.28-13.378,40.974-23.55c10.6-10.083,12.452-32.64,25.464-39.803c12.733-7.008,32.763,3.42,47.264-0.265
		c13.96-3.55,26.491-22.412,41.605-22.412c15.112,0,27.645,18.863,41.605,22.412c14.501,3.687,34.532-6.74,47.264,0.267
		c13.012,7.163,14.863,29.72,25.464,39.803c10.693,10.173,33.32,10.969,40.974,23.552c7.606,12.502-2.096,32.866,1.929,47.188
		C417.146,222.339,436.148,234.634,436.148,249.734z"/>
	<path style="fill:#FDE085;" d="M214.395,97.627c-14.501,3.687-34.532-6.742-47.264,0.265c-13.012,7.161-14.865,29.72-25.464,39.803
		c-10.695,10.173-33.32,10.969-40.974,23.55c-7.606,12.502,2.096,32.866-1.929,47.188c-3.91,13.903-22.912,26.2-22.912,41.3
		c0,15.455,19.135,28.932,23.223,44.339c3.986,15.022-6.185,35.987,1.155,49.988c7.292,13.908,30.332,17.515,40.422,29.468
		c10.221,12.11,10.09,35.509,22.65,44.641c12.829,9.326,34.673,1.741,49.381,6.925c14.517,5.117,27.015,24.293,42.744,24.755V75.236
		C240.571,75.704,228.178,94.122,214.395,97.627z"/>
</g>
<path style="fill:#FFC61B;" d="M412.925,294.072c4.087-15.407,23.223-28.884,23.223-44.339c0-15.1-19.003-27.396-22.911-41.298
	c-4.025-14.322,5.677-34.685-1.929-47.188c-7.654-12.583-30.28-13.378-40.974-23.55c-10.6-10.083-12.452-32.642-25.464-39.803
	c-12.733-7.008-32.765,3.42-47.264-0.267c-13.96-3.55-26.493-22.412-41.605-22.412c-0.193,0-0.383,0.016-0.574,0.022V449.85
	c0.191,0.005,0.381,0.022,0.574,0.022c16,0,28.624-19.599,43.317-24.776c14.707-5.184,36.552,2.401,49.381-6.925
	c12.56-9.132,12.429-32.528,22.65-44.641c10.088-11.955,33.128-15.56,40.422-29.468C419.111,330.059,408.94,309.095,412.925,294.072
	z"/>
<circle style="fill:#E03A00;" cx="160.978" cy="227.849" r="30.86"/>
<circle style="fill:#FF0F27;" cx="351.022" cy="227.849" r="30.86"/>
<path style="fill:#FF7F4F;" d="M366.792,251.426c0,52.131-49.604,94.392-110.792,94.392s-110.792-42.262-110.792-94.392
	S194.812,176.04,256,176.04S366.792,199.296,366.792,251.426z"/>
<path style="fill:#E8633A;" d="M256,176.04c-0.193,0-0.381,0.007-0.574,0.007v169.76c0.193,0,0.381,0.012,0.574,0.012
	c61.188,0,110.792-42.262,110.792-94.392S317.188,176.04,256,176.04z"/>
<g>
	<circle style="fill:#121149;" cx="212.592" cy="255.259" r="7.73"/>
	<circle style="fill:#121149;" cx="299.408" cy="255.259" r="7.73"/>
</g>
<path style="fill:#FFA083;" d="M256,279.649c-26.974,0-48.84,19.018-48.84,42.479c0,5.413,1.176,10.583,3.298,15.344
	c13.896,5.348,29.303,8.349,45.542,8.349s31.646-3.001,45.542-8.349c2.122-4.761,3.298-9.931,3.298-15.344
	C304.84,298.667,282.974,279.649,256,279.649z"/>
<path style="fill:#E5856E;" d="M256,279.649c-0.193,0-0.383,0.01-0.574,0.012v66.146c0.193,0,0.381,0.014,0.574,0.014
	c16.239,0,31.646-3.001,45.542-8.349c2.122-4.761,3.298-9.931,3.298-15.344C304.84,298.667,282.974,279.649,256,279.649z"/>
<path style="fill:#E05E36;" d="M243.214,279.649h25.571l14.97-101.872c-8.871-1.164-18.172-1.734-27.757-1.734
	c-9.585,0-18.885,0.572-27.757,1.734L243.214,279.649z"/>
<path style="fill:#C64528;" d="M283.757,177.776c-8.871-1.164-18.172-1.734-27.757-1.734c-0.193,0-0.381,0.009-0.574,0.009v103.598
	h13.36L283.757,177.776z"/>
<path style="fill:#773426;" d="M264.376,276.904h-16.753c-7.675,0-12.316,6.997-8.173,12.326l8.376,10.776
	c1.007,1.295,2.357,2.239,3.863,2.851v28.193c0,2.381,1.929,4.31,4.31,4.31s4.31-1.929,4.31-4.31v-28.193
	c1.507-0.612,2.857-1.557,3.863-2.851l8.376-10.776C276.692,283.901,272.051,276.904,264.376,276.904z"/>
<path style="fill:#66261C;" d="M264.376,276.904h-8.951v58.399c0.19,0.026,0.378,0.059,0.574,0.059c2.381,0,4.31-1.929,4.31-4.31
	v-28.193c1.507-0.612,2.857-1.557,3.863-2.851l8.376-10.776C276.692,283.901,272.051,276.904,264.376,276.904z"/>
</svg>
