<svg
                        xmlns="http://www.w3.org/2000/svg"
                        viewBox="0 0 24 24"
                        fill="white"
                    >
                        <title>card-account-details-outline</title>
                        <path d="M22,3H2C0.91,3.04 0.04,3.91 0,4V19C0.04,20.09 0.91,20.96 2,21H22C23.09,20.96 23.96,20.09 24,19V4C23.96,3.91 23.09,3.04 22,3M22,19H2V4H22V19M14,17V14.74C14,14.09 10.66,13.24 9,13.24C7.34,13.24 4,14.09 4,14.74V17H14M9,7A2.4,2.4 0 0,0 6.4,9.4A2.4,2.4 0 0,0 9,12A2.4,2.4 0 0,0 11.4,9.4A2.4,2.4 0 0,0 9,7M14,7V8H20V7H14M14,9V10H20V9H14M14,11V12H18V11H14" /></svg>