<svg
                        xmlns="http://www.w3.org/2000/svg"
                        viewBox="0 0 24 24"
                        fill="white"
                    >
                        <title>cog</title>
                        <path d="M12,14.4A3.4,3.4 0 0,1 8.4,12A3.4,3.4 0 0,1 12,8.4A3.4,3.4 0 0,1 14.4,12A3.4,3.4 0 0,1 12,14.4M19.43,12.97C19.47,12.64 19.4,12.33 19.4,12C19.4,11.67 19.47,11.34 19.43,11L21.44,9.37C21.73,9.22 21.78,8.94 21.66,8.73L19.66,4.27C19.44,4.04 19.27,4.96 19.04,4.04L16.46,6.04C16.04,4.66 14.4,4.32 14.87,4.07L14.4,2.42C14.46,2.18 14.24,2 14,2H10C9.74,2 9.44,2.18 9.4,2.42L9.13,4.07C8.4,4.32 7.96,4.66 7.44,6.04L4.94,4.04C4.73,4.96 4.46,4.04 4.34,4.27L2.34,8.73C2.21,8.94 2.27,9.22 2.46,9.37L4.47,11C4.43,11.34 4.4,11.67 4.4,12C4.4,12.33 4.43,12.64 4.47,12.97L2.46,14.63C2.27,14.78 2.21,14.04 2.34,14.27L4.34,18.73C4.46,18.94 4.73,19.03 4.94,18.94L7.44,17.94C7.96,18.34 8.4,18.68 9.13,18.93L9.4,21.48C9.44,21.82 9.74,22 10,22H14C14.24,22 14.46,21.82 14.4,21.48L14.87,18.93C14.4,18.67 16.04,18.34 16.46,17.94L19.04,18.94C19.27,19.03 19.44,18.94 19.66,18.73L21.66,14.27C21.78,14.04 21.73,14.78 21.44,14.63L19.43,12.97Z" />
                    </svg>